<?xml version="1.0" encoding="UTF-8"?>
<svg width="128" height="128" version="1.1" xml:space="preserve" xmlns="http://www.w3.org/2000/svg"><title>© 2024 NinStar</title><rect x="2" y="2" width="124" height="124" fill="#292929" stroke="#292929" stroke-width="4"/><g transform="matrix(5.7141 0 0 5.7141 16.521 18.298)"><path d="m7.8457 1.0098a1 1 0 0 0-0.29297 0.09375l-6 3a1 1 0 0 0-0.55273 0.89453v6a1 1 0 0 0 0.55273 0.89453l6 3a1 1 0 0 0 0.89453 0l0.054688-0.02734a1.5002 1.5002 0 0 1-0.22461-0.32617l-1.2773-2.5547v0.39844l-4-2v-3.7637l3.8848 1.9414a1.5002 1.5002 0 0 1 0.73438-0.19141h1.8809l3.5-1.75v1.8984a1.5002 1.5002 0 0 1 0.61914-0.14844 1.5002 1.5002 0 0 1 1.3398 0.82812l0.04102 0.082031v-4.2812a1 1 0 0 0-0.55273-0.89453l-6-3a1 1 0 0 0-0.60156-0.093754zm0.1543 2.1094 3.7637 1.8809-1.3809 0.69141-3.7637-1.8828 1.3809-0.68945z" fill="#e0e0e0"/><path d="m11.618 9.869-2 4-2-4z" color="#000000" fill="#c38ef1" stroke-linejoin="round" style="-inkscape-stroke:none;paint-order:markers stroke fill"/><path d="m15.618 13.869-2-4-2 4z" color="#000000" fill="#c38ef1" stroke-linejoin="round" style="-inkscape-stroke:none;paint-order:markers stroke fill"/></g></svg>
